<?xml version="1.0" encoding="UTF-8" standalone="no"?>
<!DOCTYPE svg PUBLIC "-//W3C//DTD SVG 1.1//EN"
 "http://www.w3.org/Graphics/SVG/1.1/DTD/svg11.dtd">
<!-- Generated by graphviz version 12.2.1 (0)
 -->
<!-- Title: g Pages: 1 -->
<svg width="341pt" height="1178pt"
 viewBox="0.00 0.00 340.75 1177.50" xmlns="http://www.w3.org/2000/svg" xmlns:xlink="http://www.w3.org/1999/xlink">
<g id="graph0" class="graph" transform="scale(1 1) rotate(0) translate(4 1173.5)">
<title>g</title>
<polygon fill="white" stroke="none" points="-4,4 -4,-1173.5 336.75,-1173.5 336.75,4 -4,4"/>
<!-- Orders -->
<g id="node1" class="node">
<title>Orders</title>
<polygon fill="none" stroke="black" points="7.12,-640.5 7.12,-836.5 158.12,-836.5 158.12,-640.5 7.12,-640.5"/>
<text text-anchor="middle" x="82.62" y="-817.3" font-family="Helvetica,Arial,sans-serif" font-size="16.00">Orders</text>
<polyline fill="none" stroke="black" points="7.12,-812 158.12,-812"/>
<text text-anchor="middle" x="82.62" y="-792.8" font-family="Helvetica,Arial,sans-serif" font-size="16.00">id PK</text>
<polyline fill="none" stroke="black" points="7.12,-787.5 158.12,-787.5"/>
<text text-anchor="middle" x="82.62" y="-768.3" font-family="Helvetica,Arial,sans-serif" font-size="16.00">userId FK</text>
<polyline fill="none" stroke="black" points="7.12,-763 158.12,-763"/>
<text text-anchor="middle" x="82.62" y="-743.8" font-family="Helvetica,Arial,sans-serif" font-size="16.00">truckId FK</text>
<polyline fill="none" stroke="black" points="7.12,-738.5 158.12,-738.5"/>
<text text-anchor="middle" x="82.62" y="-719.3" font-family="Helvetica,Arial,sans-serif" font-size="16.00">status</text>
<polyline fill="none" stroke="black" points="7.12,-714 158.12,-714"/>
<text text-anchor="middle" x="82.62" y="-694.8" font-family="Helvetica,Arial,sans-serif" font-size="16.00">orderDate</text>
<polyline fill="none" stroke="black" points="7.12,-689.5 158.12,-689.5"/>
<text text-anchor="middle" x="82.62" y="-670.3" font-family="Helvetica,Arial,sans-serif" font-size="16.00">orderContent(json)</text>
<polyline fill="none" stroke="black" points="7.12,-665 158.12,-665"/>
<text text-anchor="middle" x="82.62" y="-645.8" font-family="Helvetica,Arial,sans-serif" font-size="16.00">price</text>
</g>
<!-- Users -->
<g id="node2" class="node">
<title>Users</title>
<polygon fill="none" stroke="black" points="209.12,-807 209.12,-954 324.88,-954 324.88,-807 209.12,-807"/>
<text text-anchor="middle" x="267" y="-934.8" font-family="Helvetica,Arial,sans-serif" font-size="16.00">Users</text>
<polyline fill="none" stroke="black" points="209.12,-929.5 324.88,-929.5"/>
<text text-anchor="middle" x="267" y="-910.3" font-family="Helvetica,Arial,sans-serif" font-size="16.00">id PK</text>
<polyline fill="none" stroke="black" points="209.12,-905 324.88,-905"/>
<text text-anchor="middle" x="267" y="-885.8" font-family="Helvetica,Arial,sans-serif" font-size="16.00">name</text>
<polyline fill="none" stroke="black" points="209.12,-880.5 324.88,-880.5"/>
<text text-anchor="middle" x="267" y="-861.3" font-family="Helvetica,Arial,sans-serif" font-size="16.00">lastName</text>
<polyline fill="none" stroke="black" points="209.12,-856 324.88,-856"/>
<text text-anchor="middle" x="267" y="-836.8" font-family="Helvetica,Arial,sans-serif" font-size="16.00">birthDate</text>
<polyline fill="none" stroke="black" points="209.12,-831.5 324.88,-831.5"/>
<text text-anchor="middle" x="267" y="-812.3" font-family="Helvetica,Arial,sans-serif" font-size="16.00">bonusAmount</text>
</g>
<!-- Orders&#45;&gt;Users -->
<g id="edge14" class="edge">
<title>Orders:userId&#45;&gt;Users:id</title>
<path fill="none" stroke="black" d="M159.12,-775.25C221.58,-775.25 151.63,-899.54 197.02,-915.56"/>
<polygon fill="black" stroke="black" points="196.22,-918.97 206.63,-917.02 197.27,-912.05 196.22,-918.97"/>
<text text-anchor="middle" x="204.38" y="-903.95" font-family="Helvetica,Arial,sans-serif" font-size="14.00">1</text>
<text text-anchor="middle" x="164" y="-761.95" font-family="Helvetica,Arial,sans-serif" font-size="14.00">N</text>
</g>
<!-- Trucks -->
<g id="node3" class="node">
<title>Trucks</title>
<polygon fill="none" stroke="black" points="211,-239.75 211,-313.25 323,-313.25 323,-239.75 211,-239.75"/>
<text text-anchor="middle" x="267" y="-294.05" font-family="Helvetica,Arial,sans-serif" font-size="16.00">Trucks</text>
<polyline fill="none" stroke="black" points="211,-288.75 323,-288.75"/>
<text text-anchor="middle" x="267" y="-269.55" font-family="Helvetica,Arial,sans-serif" font-size="16.00">id PK</text>
<polyline fill="none" stroke="black" points="211,-264.25 323,-264.25"/>
<text text-anchor="middle" x="267" y="-245.05" font-family="Helvetica,Arial,sans-serif" font-size="16.00">serialNumber</text>
</g>
<!-- Orders&#45;&gt;Trucks -->
<g id="edge15" class="edge">
<title>Orders:truckId&#45;&gt;Trucks:id</title>
<path fill="none" stroke="black" d="M159.12,-750.75C260.98,-750.75 116.19,-312.83 198.77,-278.61"/>
<polygon fill="black" stroke="black" points="199.33,-282.07 208.51,-276.78 198.04,-275.19 199.33,-282.07"/>
<text text-anchor="middle" x="206.25" y="-263.2" font-family="Helvetica,Arial,sans-serif" font-size="14.00">1</text>
<text text-anchor="middle" x="164" y="-737.45" font-family="Helvetica,Arial,sans-serif" font-size="14.00">N</text>
</g>
<!-- Products -->
<g id="node4" class="node">
<title>Products</title>
<polygon fill="none" stroke="black" points="219.62,-332.25 219.62,-454.75 314.38,-454.75 314.38,-332.25 219.62,-332.25"/>
<text text-anchor="middle" x="267" y="-435.55" font-family="Helvetica,Arial,sans-serif" font-size="16.00">Products</text>
<polyline fill="none" stroke="black" points="219.62,-430.25 314.38,-430.25"/>
<text text-anchor="middle" x="267" y="-411.05" font-family="Helvetica,Arial,sans-serif" font-size="16.00">id PK</text>
<polyline fill="none" stroke="black" points="219.62,-405.75 314.38,-405.75"/>
<text text-anchor="middle" x="267" y="-386.55" font-family="Helvetica,Arial,sans-serif" font-size="16.00">name</text>
<polyline fill="none" stroke="black" points="219.62,-381.25 314.38,-381.25"/>
<text text-anchor="middle" x="267" y="-362.05" font-family="Helvetica,Arial,sans-serif" font-size="16.00">description</text>
<polyline fill="none" stroke="black" points="219.62,-356.75 314.38,-356.75"/>
<text text-anchor="middle" x="267" y="-337.55" font-family="Helvetica,Arial,sans-serif" font-size="16.00">price</text>
</g>
<!-- TruckStore -->
<g id="node5" class="node">
<title>TruckStore</title>
<polygon fill="none" stroke="black" points="28.5,-357.25 28.5,-479.75 136.75,-479.75 136.75,-357.25 28.5,-357.25"/>
<text text-anchor="middle" x="82.62" y="-460.55" font-family="Helvetica,Arial,sans-serif" font-size="16.00">TruckStore</text>
<polyline fill="none" stroke="black" points="28.5,-455.25 136.75,-455.25"/>
<text text-anchor="middle" x="82.62" y="-436.05" font-family="Helvetica,Arial,sans-serif" font-size="16.00">id PK</text>
<polyline fill="none" stroke="black" points="28.5,-430.75 136.75,-430.75"/>
<text text-anchor="middle" x="82.62" y="-411.55" font-family="Helvetica,Arial,sans-serif" font-size="16.00">truckId FK</text>
<polyline fill="none" stroke="black" points="28.5,-406.25 136.75,-406.25"/>
<text text-anchor="middle" x="82.62" y="-387.05" font-family="Helvetica,Arial,sans-serif" font-size="16.00">productId FK</text>
<polyline fill="none" stroke="black" points="28.5,-381.75 136.75,-381.75"/>
<text text-anchor="middle" x="82.62" y="-362.55" font-family="Helvetica,Arial,sans-serif" font-size="16.00">amount</text>
</g>
<!-- TruckStore&#45;&gt;Trucks -->
<g id="edge13" class="edge">
<title>TruckStore:truckId&#45;&gt;Trucks:id</title>
<path fill="none" stroke="black" d="M137.75,-418.5C204.27,-418.5 147.08,-293.17 198.62,-278"/>
<polygon fill="black" stroke="black" points="199.04,-281.47 208.5,-276.7 198.13,-274.53 199.04,-281.47"/>
<text text-anchor="middle" x="206.25" y="-278.2" font-family="Helvetica,Arial,sans-serif" font-size="14.00">1</text>
<text text-anchor="middle" x="142.62" y="-405.2" font-family="Helvetica,Arial,sans-serif" font-size="14.00">N</text>
</g>
<!-- TruckStore&#45;&gt;Products -->
<g id="edge12" class="edge">
<title>TruckStore:productId&#45;&gt;Products:id</title>
<path fill="none" stroke="black" d="M137.75,-394C171.14,-394 179.47,-413.04 207.37,-417.2"/>
<polygon fill="black" stroke="black" points="206.89,-420.68 217.12,-417.89 207.39,-413.69 206.89,-420.68"/>
<text text-anchor="middle" x="214.88" y="-404.7" font-family="Helvetica,Arial,sans-serif" font-size="14.00">1</text>
<text text-anchor="middle" x="142.62" y="-380.7" font-family="Helvetica,Arial,sans-serif" font-size="14.00">N</text>
</g>
<!-- Recipes -->
<g id="node6" class="node">
<title>Recipes</title>
<polygon fill="none" stroke="black" points="219.62,-474.25 219.62,-596.75 314.38,-596.75 314.38,-474.25 219.62,-474.25"/>
<text text-anchor="middle" x="267" y="-577.55" font-family="Helvetica,Arial,sans-serif" font-size="16.00">Recipes</text>
<polyline fill="none" stroke="black" points="219.62,-572.25 314.38,-572.25"/>
<text text-anchor="middle" x="267" y="-553.05" font-family="Helvetica,Arial,sans-serif" font-size="16.00">id PK</text>
<polyline fill="none" stroke="black" points="219.62,-547.75 314.38,-547.75"/>
<text text-anchor="middle" x="267" y="-528.55" font-family="Helvetica,Arial,sans-serif" font-size="16.00">name</text>
<polyline fill="none" stroke="black" points="219.62,-523.25 314.38,-523.25"/>
<text text-anchor="middle" x="267" y="-504.05" font-family="Helvetica,Arial,sans-serif" font-size="16.00">description</text>
<polyline fill="none" stroke="black" points="219.62,-498.75 314.38,-498.75"/>
<text text-anchor="middle" x="267" y="-479.55" font-family="Helvetica,Arial,sans-serif" font-size="16.00">price</text>
</g>
<!-- ProductsToRecipe -->
<g id="node7" class="node">
<title>ProductsToRecipe</title>
<polygon fill="none" stroke="black" points="9,-499.25 9,-621.75 156.25,-621.75 156.25,-499.25 9,-499.25"/>
<text text-anchor="middle" x="82.62" y="-602.55" font-family="Helvetica,Arial,sans-serif" font-size="16.00">ProductsToRecipe</text>
<polyline fill="none" stroke="black" points="9,-597.25 156.25,-597.25"/>
<text text-anchor="middle" x="82.62" y="-578.05" font-family="Helvetica,Arial,sans-serif" font-size="16.00">id PK</text>
<polyline fill="none" stroke="black" points="9,-572.75 156.25,-572.75"/>
<text text-anchor="middle" x="82.62" y="-553.55" font-family="Helvetica,Arial,sans-serif" font-size="16.00">productId FK</text>
<polyline fill="none" stroke="black" points="9,-548.25 156.25,-548.25"/>
<text text-anchor="middle" x="82.62" y="-529.05" font-family="Helvetica,Arial,sans-serif" font-size="16.00">recipeId FK</text>
<polyline fill="none" stroke="black" points="9,-523.75 156.25,-523.75"/>
<text text-anchor="middle" x="82.62" y="-504.55" font-family="Helvetica,Arial,sans-serif" font-size="16.00">amount</text>
</g>
<!-- ProductsToRecipe&#45;&gt;Products -->
<g id="edge10" class="edge">
<title>ProductsToRecipe:productId&#45;&gt;Products:id</title>
<path fill="none" stroke="black" d="M157.25,-560.5C221.9,-560.5 158.67,-435.26 207.33,-419.6"/>
<polygon fill="black" stroke="black" points="207.72,-423.08 217.13,-418.21 206.73,-416.15 207.72,-423.08"/>
<text text-anchor="middle" x="214.88" y="-419.7" font-family="Helvetica,Arial,sans-serif" font-size="14.00">1</text>
<text text-anchor="middle" x="162.12" y="-547.2" font-family="Helvetica,Arial,sans-serif" font-size="14.00">N</text>
</g>
<!-- ProductsToRecipe&#45;&gt;Recipes -->
<g id="edge11" class="edge">
<title>ProductsToRecipe:recipeId&#45;&gt;Recipes:id</title>
<path fill="none" stroke="black" d="M157.25,-536C182.31,-536 187.97,-553.56 207.43,-558.64"/>
<polygon fill="black" stroke="black" points="206.77,-562.09 217.12,-559.82 207.62,-555.14 206.77,-562.09"/>
<text text-anchor="middle" x="214.88" y="-546.7" font-family="Helvetica,Arial,sans-serif" font-size="14.00">1</text>
<text text-anchor="middle" x="162.12" y="-522.7" font-family="Helvetica,Arial,sans-serif" font-size="14.00">N</text>
</g>
<!-- Staff -->
<g id="node8" class="node">
<title>Staff</title>
<polygon fill="none" stroke="black" points="204.25,-49.25 204.25,-171.75 329.75,-171.75 329.75,-49.25 204.25,-49.25"/>
<text text-anchor="middle" x="267" y="-152.55" font-family="Helvetica,Arial,sans-serif" font-size="16.00">Staff</text>
<polyline fill="none" stroke="black" points="204.25,-147.25 329.75,-147.25"/>
<text text-anchor="middle" x="267" y="-128.05" font-family="Helvetica,Arial,sans-serif" font-size="16.00">id PK</text>
<polyline fill="none" stroke="black" points="204.25,-122.75 329.75,-122.75"/>
<text text-anchor="middle" x="267" y="-103.55" font-family="Helvetica,Arial,sans-serif" font-size="16.00">contactNumber</text>
<polyline fill="none" stroke="black" points="204.25,-98.25 329.75,-98.25"/>
<text text-anchor="middle" x="267" y="-79.05" font-family="Helvetica,Arial,sans-serif" font-size="16.00">name</text>
<polyline fill="none" stroke="black" points="204.25,-73.75 329.75,-73.75"/>
<text text-anchor="middle" x="267" y="-54.55" font-family="Helvetica,Arial,sans-serif" font-size="16.00">role</text>
</g>
<!-- TrucksStaff -->
<g id="node9" class="node">
<title>TrucksStaff</title>
<polygon fill="none" stroke="black" points="25.12,-215.25 25.12,-337.75 140.12,-337.75 140.12,-215.25 25.12,-215.25"/>
<text text-anchor="middle" x="82.62" y="-318.55" font-family="Helvetica,Arial,sans-serif" font-size="16.00">TrucksStaff</text>
<polyline fill="none" stroke="black" points="25.12,-313.25 140.12,-313.25"/>
<text text-anchor="middle" x="82.62" y="-294.05" font-family="Helvetica,Arial,sans-serif" font-size="16.00">id PK</text>
<polyline fill="none" stroke="black" points="25.12,-288.75 140.12,-288.75"/>
<text text-anchor="middle" x="82.62" y="-269.55" font-family="Helvetica,Arial,sans-serif" font-size="16.00">truckId FK</text>
<polyline fill="none" stroke="black" points="25.12,-264.25 140.12,-264.25"/>
<text text-anchor="middle" x="82.62" y="-245.05" font-family="Helvetica,Arial,sans-serif" font-size="16.00">staffId FK</text>
<polyline fill="none" stroke="black" points="25.12,-239.75 140.12,-239.75"/>
<text text-anchor="middle" x="82.62" y="-220.55" font-family="Helvetica,Arial,sans-serif" font-size="16.00">assignedDate</text>
</g>
<!-- TrucksStaff&#45;&gt;Trucks -->
<g id="edge9" class="edge">
<title>TrucksStaff:truckId&#45;&gt;Trucks:id</title>
<path fill="none" stroke="black" d="M141.12,-276.5C167.55,-276.5 176.87,-276.5 198.61,-276.5"/>
<polygon fill="black" stroke="black" points="198.49,-280 208.49,-276.5 198.49,-273 198.49,-280"/>
<text text-anchor="middle" x="213.75" y="-263.2" font-family="Helvetica,Arial,sans-serif" font-size="14.00">1</text>
<text text-anchor="middle" x="146" y="-263.2" font-family="Helvetica,Arial,sans-serif" font-size="14.00">N</text>
</g>
<!-- TrucksStaff&#45;&gt;Staff -->
<g id="edge8" class="edge">
<title>TrucksStaff:staffId&#45;&gt;Staff:id</title>
<path fill="none" stroke="black" d="M141.12,-252C195.63,-252 152,-151.72 191.94,-136.84"/>
<polygon fill="black" stroke="black" points="192.45,-140.3 201.76,-135.24 191.32,-133.39 192.45,-140.3"/>
<text text-anchor="middle" x="199.5" y="-121.7" font-family="Helvetica,Arial,sans-serif" font-size="14.00">1</text>
<text text-anchor="middle" x="146" y="-238.7" font-family="Helvetica,Arial,sans-serif" font-size="14.00">N</text>
</g>
<!-- BonusPrograms -->
<g id="node10" class="node">
<title>BonusPrograms</title>
<polygon fill="none" stroke="black" points="201.25,-985 201.25,-1132 332.75,-1132 332.75,-985 201.25,-985"/>
<text text-anchor="middle" x="267" y="-1112.8" font-family="Helvetica,Arial,sans-serif" font-size="16.00">BonusPrograms</text>
<polyline fill="none" stroke="black" points="201.25,-1107.5 332.75,-1107.5"/>
<text text-anchor="middle" x="267" y="-1088.3" font-family="Helvetica,Arial,sans-serif" font-size="16.00">id PK</text>
<polyline fill="none" stroke="black" points="201.25,-1083 332.75,-1083"/>
<text text-anchor="middle" x="267" y="-1063.8" font-family="Helvetica,Arial,sans-serif" font-size="16.00">name</text>
<polyline fill="none" stroke="black" points="201.25,-1058.5 332.75,-1058.5"/>
<text text-anchor="middle" x="267" y="-1039.3" font-family="Helvetica,Arial,sans-serif" font-size="16.00">description</text>
<polyline fill="none" stroke="black" points="201.25,-1034 332.75,-1034"/>
<text text-anchor="middle" x="267" y="-1014.8" font-family="Helvetica,Arial,sans-serif" font-size="16.00">fromDate</text>
<polyline fill="none" stroke="black" points="201.25,-1009.5 332.75,-1009.5"/>
<text text-anchor="middle" x="267" y="-990.3" font-family="Helvetica,Arial,sans-serif" font-size="16.00">toDate</text>
</g>
<!-- ProductsToTruck -->
<g id="node11" class="node">
<title>ProductsToTruck</title>
<polygon fill="none" stroke="black" points="8.62,-0.5 8.62,-196.5 156.62,-196.5 156.62,-0.5 8.62,-0.5"/>
<text text-anchor="middle" x="82.62" y="-177.3" font-family="Helvetica,Arial,sans-serif" font-size="16.00">ProductsToTruck</text>
<polyline fill="none" stroke="black" points="8.62,-172 156.62,-172"/>
<text text-anchor="middle" x="82.62" y="-152.8" font-family="Helvetica,Arial,sans-serif" font-size="16.00">id PK</text>
<polyline fill="none" stroke="black" points="8.62,-147.5 156.62,-147.5"/>
<text text-anchor="middle" x="82.62" y="-128.3" font-family="Helvetica,Arial,sans-serif" font-size="16.00">staffId FK</text>
<polyline fill="none" stroke="black" points="8.62,-123 156.62,-123"/>
<text text-anchor="middle" x="82.62" y="-103.8" font-family="Helvetica,Arial,sans-serif" font-size="16.00">truckId FK</text>
<polyline fill="none" stroke="black" points="8.62,-98.5 156.62,-98.5"/>
<text text-anchor="middle" x="82.62" y="-79.3" font-family="Helvetica,Arial,sans-serif" font-size="16.00">executorStaffId FK</text>
<polyline fill="none" stroke="black" points="8.62,-74 156.62,-74"/>
<text text-anchor="middle" x="82.62" y="-54.8" font-family="Helvetica,Arial,sans-serif" font-size="16.00">productList(json)</text>
<polyline fill="none" stroke="black" points="8.62,-49.5 156.62,-49.5"/>
<text text-anchor="middle" x="82.62" y="-30.3" font-family="Helvetica,Arial,sans-serif" font-size="16.00">desiredDate</text>
<polyline fill="none" stroke="black" points="8.62,-25 156.62,-25"/>
<text text-anchor="middle" x="82.62" y="-5.8" font-family="Helvetica,Arial,sans-serif" font-size="16.00">plannedDate</text>
</g>
<!-- ProductsToTruck&#45;&gt;Trucks -->
<g id="edge7" class="edge">
<title>ProductsToTruck:truckId&#45;&gt;Trucks:id</title>
<path fill="none" stroke="black" d="M157.62,-110.75C230.66,-110.75 143.38,-258.87 198.88,-275.07"/>
<polygon fill="black" stroke="black" points="198.13,-278.5 208.5,-276.31 199.03,-271.56 198.13,-278.5"/>
<text text-anchor="middle" x="213.75" y="-278.2" font-family="Helvetica,Arial,sans-serif" font-size="14.00">1</text>
<text text-anchor="middle" x="162.5" y="-97.45" font-family="Helvetica,Arial,sans-serif" font-size="14.00">N</text>
</g>
<!-- ProductsToTruck&#45;&gt;Staff -->
<g id="edge5" class="edge">
<title>ProductsToTruck:executorStaffId&#45;&gt;Staff:id</title>
<path fill="none" stroke="black" d="M157.62,-86.25C182.9,-86.25 176.69,-121.6 192.62,-132.1"/>
<polygon fill="black" stroke="black" points="191.22,-135.34 201.79,-134.6 193.07,-128.59 191.22,-135.34"/>
<text text-anchor="middle" x="199.5" y="-136.7" font-family="Helvetica,Arial,sans-serif" font-size="14.00">1</text>
<text text-anchor="middle" x="162.5" y="-72.95" font-family="Helvetica,Arial,sans-serif" font-size="14.00">N</text>
</g>
<!-- ProductsToTruck&#45;&gt;Staff -->
<g id="edge6" class="edge">
<title>ProductsToTruck:staffId&#45;&gt;Staff:id</title>
<path fill="none" stroke="black" d="M157.62,-135.25C173.47,-135.25 180.03,-135.1 191.81,-135.03"/>
<polygon fill="black" stroke="black" points="191.75,-138.53 201.74,-135 191.73,-131.53 191.75,-138.53"/>
<text text-anchor="middle" x="207" y="-121.7" font-family="Helvetica,Arial,sans-serif" font-size="14.00">1</text>
<text text-anchor="middle" x="162.5" y="-121.95" font-family="Helvetica,Arial,sans-serif" font-size="14.00">N</text>
</g>
<!-- UserBonusPrograms -->
<g id="node12" class="node">
<title>UserBonusPrograms</title>
<polygon fill="none" stroke="black" points="0,-856 0,-1003 165.25,-1003 165.25,-856 0,-856"/>
<text text-anchor="middle" x="82.62" y="-983.8" font-family="Helvetica,Arial,sans-serif" font-size="16.00">UserBonusPrograms</text>
<polyline fill="none" stroke="black" points="0,-978.5 165.25,-978.5"/>
<text text-anchor="middle" x="82.62" y="-959.3" font-family="Helvetica,Arial,sans-serif" font-size="16.00">id PK</text>
<polyline fill="none" stroke="black" points="0,-954 165.25,-954"/>
<text text-anchor="middle" x="82.62" y="-934.8" font-family="Helvetica,Arial,sans-serif" font-size="16.00">bonusProgramId FK</text>
<polyline fill="none" stroke="black" points="0,-929.5 165.25,-929.5"/>
<text text-anchor="middle" x="82.62" y="-910.3" font-family="Helvetica,Arial,sans-serif" font-size="16.00">userId FK</text>
<polyline fill="none" stroke="black" points="0,-905 165.25,-905"/>
<text text-anchor="middle" x="82.62" y="-885.8" font-family="Helvetica,Arial,sans-serif" font-size="16.00">startDate</text>
<polyline fill="none" stroke="black" points="0,-880.5 165.25,-880.5"/>
<text text-anchor="middle" x="82.62" y="-861.3" font-family="Helvetica,Arial,sans-serif" font-size="16.00">endDate</text>
</g>
<!-- UserBonusPrograms&#45;&gt;Users -->
<g id="edge4" class="edge">
<title>UserBonusPrograms:userId&#45;&gt;Users:id</title>
<path fill="none" stroke="black" d="M165.25,-917.25C179.84,-917.25 186.05,-917.25 196.71,-917.25"/>
<polygon fill="black" stroke="black" points="196.61,-920.75 206.61,-917.25 196.61,-913.75 196.61,-920.75"/>
<text text-anchor="middle" x="204.38" y="-918.95" font-family="Helvetica,Arial,sans-serif" font-size="14.00">1</text>
<text text-anchor="middle" x="170.12" y="-903.95" font-family="Helvetica,Arial,sans-serif" font-size="14.00">N</text>
</g>
<!-- UserBonusPrograms&#45;&gt;BonusPrograms -->
<g id="edge3" class="edge">
<title>UserBonusPrograms:bonusProgramId&#45;&gt;BonusPrograms:id</title>
<path fill="none" stroke="black" d="M165.25,-941.75C230.94,-941.75 143.51,-1076.66 190.07,-1093.53"/>
<polygon fill="black" stroke="black" points="189.34,-1096.95 199.75,-1095.02 190.4,-1090.04 189.34,-1096.95"/>
<text text-anchor="middle" x="197.5" y="-1081.95" font-family="Helvetica,Arial,sans-serif" font-size="14.00">1</text>
<text text-anchor="middle" x="170.12" y="-928.45" font-family="Helvetica,Arial,sans-serif" font-size="14.00">N</text>
</g>
<!-- BonusHistory -->
<g id="node13" class="node">
<title>BonusHistory</title>
<polygon fill="none" stroke="black" points="2.62,-1022 2.62,-1169 162.62,-1169 162.62,-1022 2.62,-1022"/>
<text text-anchor="middle" x="82.62" y="-1149.8" font-family="Helvetica,Arial,sans-serif" font-size="16.00">BonusHistory</text>
<polyline fill="none" stroke="black" points="2.62,-1144.5 162.62,-1144.5"/>
<text text-anchor="middle" x="82.62" y="-1125.3" font-family="Helvetica,Arial,sans-serif" font-size="16.00">id PK</text>
<polyline fill="none" stroke="black" points="2.62,-1120 162.62,-1120"/>
<text text-anchor="middle" x="82.62" y="-1100.8" font-family="Helvetica,Arial,sans-serif" font-size="16.00">bonusProgramId FK</text>
<polyline fill="none" stroke="black" points="2.62,-1095.5 162.62,-1095.5"/>
<text text-anchor="middle" x="82.62" y="-1076.3" font-family="Helvetica,Arial,sans-serif" font-size="16.00">userId FK</text>
<polyline fill="none" stroke="black" points="2.62,-1071 162.62,-1071"/>
<text text-anchor="middle" x="82.62" y="-1051.8" font-family="Helvetica,Arial,sans-serif" font-size="16.00">eventDate</text>
<polyline fill="none" stroke="black" points="2.62,-1046.5 162.62,-1046.5"/>
<text text-anchor="middle" x="82.62" y="-1027.3" font-family="Helvetica,Arial,sans-serif" font-size="16.00">eventType</text>
</g>
<!-- BonusHistory&#45;&gt;Users -->
<g id="edge1" class="edge">
<title>BonusHistory:userId&#45;&gt;Users:id</title>
<path fill="none" stroke="black" d="M163.62,-1083.25C235.68,-1083.25 143.41,-935.52 196.86,-918.79"/>
<polygon fill="black" stroke="black" points="197.19,-922.27 206.63,-917.45 196.24,-915.34 197.19,-922.27"/>
<text text-anchor="middle" x="211.88" y="-903.95" font-family="Helvetica,Arial,sans-serif" font-size="14.00">1</text>
<text text-anchor="middle" x="168.5" y="-1069.95" font-family="Helvetica,Arial,sans-serif" font-size="14.00">N</text>
</g>
<!-- BonusHistory&#45;&gt;BonusPrograms -->
<g id="edge2" class="edge">
<title>BonusHistory:bonusProgramId&#45;&gt;BonusPrograms:id</title>
<path fill="none" stroke="black" d="M163.62,-1107.75C176.7,-1107.75 181.39,-1100.86 190.14,-1097.31"/>
<polygon fill="black" stroke="black" points="190.57,-1100.79 199.76,-1095.53 189.29,-1093.91 190.57,-1100.79"/>
<text text-anchor="middle" x="197.5" y="-1096.95" font-family="Helvetica,Arial,sans-serif" font-size="14.00">1</text>
<text text-anchor="middle" x="168.5" y="-1094.45" font-family="Helvetica,Arial,sans-serif" font-size="14.00">N</text>
</g>
</g>
</svg>
