<svg xmlns="http://www.w3.org/2000/svg" xmlns:xlink="http://www.w3.org/1999/xlink" contentStyleType="text/css" data-diagram-type="DESCRIPTION" height="923px" preserveAspectRatio="none" style="width:1721px;height:923px;background:#FFFFFF;" version="1.1" viewBox="0 0 1721 923" width="1721px" zoomAndPan="magnify"><defs/><g><!--cluster ?????? VPC--><g class="cluster" data-entity="&#1071;&#1085;&#1076;&#1077;&#1082;&#1089; VPC" data-source-line="8" data-uid="ent0003" id="cluster_&#1071;&#1085;&#1076;&#1077;&#1082;&#1089; VPC"><path d="M8.5,187.71 L91.6937,187.71 A3.75,3.75 0 0 1 94.1937,190.21 L101.1937,212.7779 L1711.5,212.7779 A2.5,2.5 0 0 1 1714,215.2779 L1714,914.15 A2.5,2.5 0 0 1 1711.5,916.65 L8.5,916.65 A2.5,2.5 0 0 1 6,914.15 L6,190.21 A2.5,2.5 0 0 1 8.5,187.71" fill="none" style="stroke:#000000;stroke-width:1.5;"/><line style="stroke:#000000;stroke-width:1.5;" x1="6" x2="101.1937" y1="212.7779" y2="212.7779"/><text fill="#000000" font-family="sans-serif" font-size="14" font-weight="bold" lengthAdjust="spacing" textLength="82.1937" x="10" y="204.6759">&#1071;&#1085;&#1076;&#1077;&#1082;&#1089; VPC</text></g><!--cluster Public Subnet--><g class="cluster" data-entity="Public Subnet" data-source-line="9" data-uid="ent0004" id="cluster_Public Subnet"><path d="M32.5,233.71 L128.5596,233.71 A3.75,3.75 0 0 1 131.0596,236.21 L138.0596,258.7779 L706.5,258.7779 A2.5,2.5 0 0 1 709,261.2779 L709,584.95 A2.5,2.5 0 0 1 706.5,587.45 L32.5,587.45 A2.5,2.5 0 0 1 30,584.95 L30,236.21 A2.5,2.5 0 0 1 32.5,233.71" fill="none" style="stroke:#000000;stroke-width:1.5;"/><line style="stroke:#000000;stroke-width:1.5;" x1="30" x2="138.0596" y1="258.7779" y2="258.7779"/><text fill="#000000" font-family="sans-serif" font-size="14" font-weight="bold" lengthAdjust="spacing" textLength="95.0596" x="34" y="250.6759">Public Subnet</text></g><!--cluster Private Subnet--><g class="cluster" data-entity="Private Subnet" data-source-line="17" data-uid="ent0010" id="cluster_Private Subnet"><path d="M735.5,416.84 L839.2876,416.84 A3.75,3.75 0 0 1 841.7876,419.34 L848.7876,441.9079 L1687.5,441.9079 A2.5,2.5 0 0 1 1690,444.4079 L1690,890.15 A2.5,2.5 0 0 1 1687.5,892.65 L735.5,892.65 A2.5,2.5 0 0 1 733,890.15 L733,419.34 A2.5,2.5 0 0 1 735.5,416.84" fill="none" style="stroke:#000000;stroke-width:1.5;"/><line style="stroke:#000000;stroke-width:1.5;" x1="733" x2="848.7876" y1="441.9079" y2="441.9079"/><text fill="#000000" font-family="sans-serif" font-size="14" font-weight="bold" lengthAdjust="spacing" textLength="102.7876" x="737" y="433.8059">Private Subnet</text></g><!--cluster K8s Node Pool (Web/API)--><g class="cluster" data-entity="K8s Node Pool (Web/API)" data-source-line="18" data-uid="ent0011" id="cluster_K8s Node Pool (Web/API)"><path d="M1012.5,638.45 L1186.3293,638.45 A3.75,3.75 0 0 1 1188.8293,640.95 L1195.8293,663.5179 L1195.5,663.5179 A2.5,2.5 0 0 1 1198,666.0179 L1198,751.01 A2.5,2.5 0 0 1 1195.5,753.51 L1012.5,753.51 A2.5,2.5 0 0 1 1010,751.01 L1010,640.95 A2.5,2.5 0 0 1 1012.5,638.45" fill="none" style="stroke:#000000;stroke-width:1.5;"/><line style="stroke:#000000;stroke-width:1.5;" x1="1010" x2="1195.8293" y1="663.5179" y2="663.5179"/><text fill="#000000" font-family="sans-serif" font-size="14" font-weight="bold" lengthAdjust="spacing" textLength="172.8293" x="1014" y="655.4159">K8s Node Pool (Web/API)</text></g><!--cluster K8s Node Pool (Auth/Log)--><g class="cluster" data-entity="K8s Node Pool (Auth/Log)" data-source-line="21" data-uid="ent0013" id="cluster_K8s Node Pool (Auth/Log)"><path d="M759.5,462.84 L938.1453,462.84 A3.75,3.75 0 0 1 940.6453,465.34 L947.6453,487.9079 L970.5,487.9079 A2.5,2.5 0 0 1 973,490.4079 L973,751.01 A2.5,2.5 0 0 1 970.5,753.51 L759.5,753.51 A2.5,2.5 0 0 1 757,751.01 L757,465.34 A2.5,2.5 0 0 1 759.5,462.84" fill="none" style="stroke:#000000;stroke-width:1.5;"/><line style="stroke:#000000;stroke-width:1.5;" x1="757" x2="947.6453" y1="487.9079" y2="487.9079"/><text fill="#000000" font-family="sans-serif" font-size="14" font-weight="bold" lengthAdjust="spacing" textLength="177.6453" x="761" y="479.8059">K8s Node Pool (Auth/Log)</text></g><!--entity CDN--><g class="entity" data-entity="CDN" data-source-line="10" data-uid="ent0005" id="entity_CDN"><rect fill="#F1F1F1" height="58.1358" rx="2.5" ry="2.5" style="stroke:#181818;stroke-width:0.5;" width="169.7995" x="46.1" y="293.71"/><text fill="#000000" font-family="sans-serif" font-size="14" lengthAdjust="spacing" textLength="81.6897" x="56.1" y="318.6759">Yandex CDN</text><text fill="#000000" font-family="sans-serif" font-size="14" lengthAdjust="spacing" textLength="149.7995" x="56.1" y="337.7439">(&#1089;&#1090;&#1072;&#1090;&#1080;&#1095;&#1077;&#1089;&#1082;&#1080;&#1081; &#1082;&#1086;&#1085;&#1090;&#1077;&#1085;&#1090;)</text></g><!--entity APIGW--><g class="entity" data-entity="APIGW" data-source-line="11" data-uid="ent0006" id="entity_APIGW"><rect fill="#F1F1F1" height="58.1358" rx="2.5" ry="2.5" style="stroke:#181818;stroke-width:0.5;" width="163.1774" x="250.41" y="293.71"/><text fill="#000000" font-family="sans-serif" font-size="14" lengthAdjust="spacing" textLength="82.7957" x="260.41" y="318.6759">API Gateway</text><text fill="#000000" font-family="sans-serif" font-size="14" lengthAdjust="spacing" textLength="143.1774" x="260.41" y="337.7439">(Yandex API Gateway)</text></g><!--entity Ingress--><g class="entity" data-entity="Ingress" data-source-line="12" data-uid="ent0007" id="entity_Ingress"><rect fill="#F1F1F1" height="58.1358" rx="2.5" ry="2.5" style="stroke:#181818;stroke-width:0.5;" width="138.9156" x="293.54" y="513.31"/><text fill="#000000" font-family="sans-serif" font-size="14" lengthAdjust="spacing" textLength="118.9156" x="303.54" y="538.2759">Ingress Controller</text><text fill="#000000" font-family="sans-serif" font-size="14" lengthAdjust="spacing" textLength="52.8218" x="303.54" y="557.3439">(NGINX)</text></g><!--entity OBJ--><g class="entity" data-entity="OBJ" data-source-line="13" data-uid="ent0008" id="entity_OBJ"><rect fill="#F1F1F1" height="58.1358" rx="2.5" ry="2.5" style="stroke:#181818;stroke-width:0.5;" width="178.1994" x="45.9" y="513.31"/><text fill="#000000" font-family="sans-serif" font-size="14" lengthAdjust="spacing" textLength="97.8176" x="55.9" y="538.2759">Object Storage</text><text fill="#000000" font-family="sans-serif" font-size="14" lengthAdjust="spacing" textLength="158.1994" x="55.9" y="557.3439">(Yandex Object Storage)</text></g><!--entity Push--><g class="entity" data-entity="Push" data-source-line="14" data-uid="ent0009" id="entity_Push"><rect fill="#F1F1F1" height="58.1358" rx="2.5" ry="2.5" style="stroke:#181818;stroke-width:0.5;" width="244.3631" x="448.82" y="293.71"/><text fill="#000000" font-family="sans-serif" font-size="14" lengthAdjust="spacing" textLength="220.7231" x="458.82" y="318.6759">Yandex Cloud Notification Service</text><text fill="#000000" font-family="sans-serif" font-size="14" lengthAdjust="spacing" textLength="134.4135" x="458.82" y="337.7439">(&#1055;&#1091;&#1096;-&#1091;&#1074;&#1077;&#1076;&#1086;&#1084;&#1083;&#1077;&#1085;&#1080;&#1103;)</text></g><!--entity Rabbit--><g class="entity" data-entity="Rabbit" data-source-line="25" data-uid="ent0016" id="entity_Rabbit"><rect fill="#F1F1F1" height="58.1358" rx="2.5" ry="2.5" style="stroke:#181818;stroke-width:0.5;" width="158.3755" x="899.81" y="818.51"/><text fill="#000000" font-family="sans-serif" font-size="14" lengthAdjust="spacing" textLength="66.0798" x="909.81" y="843.4759">RabbitMQ</text><text fill="#000000" font-family="sans-serif" font-size="14" lengthAdjust="spacing" textLength="138.3755" x="909.81" y="862.5439">(Managed &#1080;&#1083;&#1080; &#1074; K8s)</text></g><!--entity PG--><g class="entity" data-entity="PG" data-source-line="26" data-uid="ent0017" id="entity_PG"><rect fill="#F1F1F1" height="58.1358" rx="2.5" ry="2.5" style="stroke:#181818;stroke-width:0.5;" width="119.9036" x="1136.05" y="513.31"/><text fill="#000000" font-family="sans-serif" font-size="14" lengthAdjust="spacing" textLength="99.9036" x="1146.05" y="538.2759">PostgreSQL HA</text><text fill="#000000" font-family="sans-serif" font-size="14" lengthAdjust="spacing" textLength="70.5737" x="1146.05" y="557.3439">(Managed)</text></g><!--entity CH--><g class="entity" data-entity="CH" data-source-line="27" data-uid="ent0018" id="entity_CH"><rect fill="#F1F1F1" height="58.1358" rx="2.5" ry="2.5" style="stroke:#181818;stroke-width:0.5;" width="92.3657" x="1164.82" y="818.51"/><text fill="#000000" font-family="sans-serif" font-size="14" lengthAdjust="spacing" textLength="72.3657" x="1174.82" y="843.4759">ClickHouse</text><text fill="#000000" font-family="sans-serif" font-size="14" lengthAdjust="spacing" textLength="70.5737" x="1174.82" y="862.5439">(Managed)</text></g><!--entity Redis--><g class="entity" data-entity="Redis" data-source-line="28" data-uid="ent0019" id="entity_Redis"><rect fill="#F1F1F1" height="58.1358" rx="2.5" ry="2.5" style="stroke:#181818;stroke-width:0.5;" width="90.5737" x="1466.71" y="513.31"/><text fill="#000000" font-family="sans-serif" font-size="14" lengthAdjust="spacing" textLength="35.5319" x="1476.71" y="538.2759">Redis</text><text fill="#000000" font-family="sans-serif" font-size="14" lengthAdjust="spacing" textLength="70.5737" x="1476.71" y="557.3439">(Managed)</text></g><!--entity K8sWeb--><g class="entity" data-entity="K8sWeb" data-source-line="19" data-uid="ent0012" id="entity_K8sWeb"><rect fill="#F1F1F1" height="39.0679" rx="2.5" ry="2.5" style="stroke:#181818;stroke-width:0.5;" width="112.7917" x="1038.6" y="698.45"/><text fill="#000000" font-family="sans-serif" font-size="14" lengthAdjust="spacing" textLength="92.7917" x="1048.6" y="723.4159">Web/API Pods</text></g><!--entity KC--><g class="entity" data-entity="KC" data-source-line="22" data-uid="ent0014" id="entity_KC"><rect fill="#F1F1F1" height="39.0679" rx="2.5" ry="2.5" style="stroke:#181818;stroke-width:0.5;" width="113.7296" x="773.14" y="698.45"/><text fill="#000000" font-family="sans-serif" font-size="14" lengthAdjust="spacing" textLength="93.7296" x="783.14" y="723.4159">Keycloak Pods</text></g><!--entity Logging--><g class="entity" data-entity="Logging" data-source-line="23" data-uid="ent0015" id="entity_Logging"><rect fill="#F1F1F1" height="39.0679" rx="2.5" ry="2.5" style="stroke:#181818;stroke-width:0.5;" width="184.3594" x="772.82" y="522.84"/><text fill="#000000" font-family="sans-serif" font-size="14" lengthAdjust="spacing" textLength="164.3594" x="782.82" y="547.8059">Logging / Metrics Agents</text></g><!--entity User--><g class="entity" data-entity="User" data-source-line="6" data-uid="ent0002" id="entity_User"><ellipse cx="332.0028" cy="14" fill="#F1F1F1" rx="8" ry="8" style="stroke:#181818;stroke-width:0.5;"/><path d="M332.0028,22 L332.0028,49 M319.0028,30 L345.0028,30 M332.0028,49 L319.0028,64 M332.0028,49 L345.0028,64" fill="none" style="stroke:#181818;stroke-width:0.5;"/><text fill="#000000" font-family="sans-serif" font-size="14" lengthAdjust="spacing" textLength="95.3256" x="284.34" y="80.4659">&#1055;&#1086;&#1083;&#1100;&#1079;&#1086;&#1074;&#1072;&#1090;&#1077;&#1083;&#1100;</text><text fill="#000000" font-family="sans-serif" font-size="14" lengthAdjust="spacing" textLength="82.7397" x="284.34" y="99.5339">(&#1052;&#1086;&#1073;&#1080;&#1083;&#1100;&#1085;&#1086;&#1077;</text><text fill="#000000" font-family="sans-serif" font-size="14" lengthAdjust="spacing" textLength="91.5457" x="284.34" y="118.6018">&#1055;&#1088;&#1080;&#1083;&#1086;&#1078;&#1077;&#1085;&#1080;&#1077;)</text></g><!--link User to CDN--><g class="link" data-entity-1="User" data-entity-2="CDN" data-source-line="32" data-uid="lnk20" id="link_User_CDN"><path d="M283.84,94.09 C261.2,109.44 235.07,129.84 216,152.71 C179.71,196.24 155.8008,252.2387 142.7208,287.8087" fill="none" id="User-to-CDN" style="stroke:#181818;stroke-width:1;"/><polygon fill="#181818" points="140.65,293.44,147.5104,286.3735,142.3757,288.7472,140.002,283.6125,140.65,293.44" style="stroke:#181818;stroke-width:1;"/><text fill="#000000" font-family="sans-serif" font-size="13" lengthAdjust="spacing" textLength="106.6651" x="217" y="167.607">&#1047;&#1072;&#1087;&#1088;&#1086;&#1089;&#1099; &#1089;&#1090;&#1072;&#1090;&#1080;&#1082;&#1080;</text></g><!--link User to APIGW--><g class="link" data-entity-1="User" data-entity-2="APIGW" data-source-line="33" data-uid="lnk21" id="link_User_APIGW"><path d="M332,123.03 C332,176.11 332,246.47 332,287.36" fill="none" id="User-to-APIGW" style="stroke:#181818;stroke-width:1;"/><polygon fill="#181818" points="332,293.36,336,284.36,332,288.36,328,284.36,332,293.36" style="stroke:#181818;stroke-width:1;"/><text fill="#000000" font-family="sans-serif" font-size="13" lengthAdjust="spacing" textLength="90.6361" x="333" y="167.607">REST/gRPC API</text></g><!--reverse link User to Push--><g class="link" data-entity-1="User" data-entity-2="Push" data-source-line="34" data-uid="lnk22" id="link_User_Push"><path d="M384.5495,108.2818 C401.5295,122.8818 415.86,136.05 432,152.71 C477.09,199.23 523.78,258.78 549.93,293.37" fill="none" id="User-backto-Push" style="stroke:#181818;stroke-width:1;"/><polygon fill="#181818" points="380,104.37,384.2164,113.2707,383.7912,107.6298,389.4321,107.2047,380,104.37" style="stroke:#181818;stroke-width:1;"/><text fill="#000000" font-family="sans-serif" font-size="13" lengthAdjust="spacing" textLength="263.3022" x="449.28" y="167.607">&#1055;&#1086;&#1083;&#1091;&#1095;&#1077;&#1085;&#1080;&#1077; &#1087;&#1091;&#1096;-&#1091;&#1074;&#1077;&#1076;&#1086;&#1084;&#1083;&#1077;&#1085;&#1080;&#1081; websockets</text></g><!--link CDN to OBJ--><g class="link" data-entity-1="CDN" data-entity-2="OBJ" data-source-line="35" data-uid="lnk23" id="link_CDN_OBJ"><path d="M131.52,352.22 C132.29,393.93 133.5992,465.221 134.3692,506.921" fill="none" id="CDN-to-OBJ" style="stroke:#181818;stroke-width:1;"/><polygon fill="#181818" points="134.48,512.92,138.3132,503.8477,134.3877,507.9209,130.3145,503.9954,134.48,512.92" style="stroke:#181818;stroke-width:1;"/><text fill="#000000" font-family="sans-serif" font-size="13" lengthAdjust="spacing" textLength="159.1072" x="133.41" y="396.737">&#1055;&#1086;&#1083;&#1091;&#1095;&#1077;&#1085;&#1080;&#1077; &#1080;&#1079;&#1086;&#1073;&#1088;&#1072;&#1078;&#1077;&#1085;&#1080;&#1081;</text></g><!--link APIGW to Ingress--><g class="link" data-entity-1="APIGW" data-entity-2="Ingress" data-source-line="37" data-uid="lnk24" id="link_APIGW_Ingress"><path d="M336.05,352.22 C341.99,393.93 352.1525,465.2802 358.1025,506.9802" fill="none" id="APIGW-to-Ingress" style="stroke:#181818;stroke-width:1;"/><polygon fill="#181818" points="358.95,512.92,361.6386,503.4452,358.2437,507.9701,353.7188,504.5753,358.95,512.92" style="stroke:#181818;stroke-width:1;"/></g><!--link Ingress to K8sWeb--><g class="link" data-entity-1="Ingress" data-entity-2="K8sWeb" data-source-line="38" data-uid="lnk25" id="link_Ingress_K8sWeb"><path d="M380.23,571.59 C393.09,589.78 412.46,611.93 436,622.45 C463.24,634.61 944.64,621.18 973,630.45 C1014.47,644 1049.6918,672.9062 1072.0018,694.0162" fill="none" id="Ingress-to-K8sWeb" style="stroke:#181818;stroke-width:1;"/><polygon fill="#181818" points="1076.36,698.14,1072.5719,689.0488,1072.7281,694.7035,1067.0734,694.8598,1076.36,698.14" style="stroke:#181818;stroke-width:1;"/><text fill="#000000" font-family="sans-serif" font-size="13" lengthAdjust="spacing" textLength="55.7181" x="437" y="618.347">HTTP/tcp</text></g><!--link Ingress to KC--><g class="link" data-entity-1="Ingress" data-entity-2="KC" data-source-line="39" data-uid="lnk26" id="link_Ingress_KC"><path d="M353.89,571.57 C350.4,588.15 349.61,608.53 361,622.45 C412.49,685.35 653.471,706.9677 766.861,713.8277" fill="none" id="Ingress-to-KC" style="stroke:#181818;stroke-width:1;"/><polygon fill="#181818" points="772.85,714.19,764.108,709.6538,767.8591,713.8881,763.6249,717.6392,772.85,714.19" style="stroke:#181818;stroke-width:1;"/><text fill="#000000" font-family="sans-serif" font-size="13" lengthAdjust="spacing" textLength="32.89" x="362" y="618.347">/auth</text></g><!--link Ingress to Logging--><g class="link" data-entity-1="Ingress" data-entity-2="Logging" data-source-line="40" data-uid="lnk27" id="link_Ingress_Logging"><path d="M376.44,512.84 C391.72,483.26 419.73,439.49 459,420.43 C558.96,371.9 603.95,384.24 709,420.43 C768.15,440.81 818.0238,489.4014 844.2338,518.3614" fill="none" id="Ingress-to-Logging" style="stroke:#181818;stroke-width:1;"/><polygon fill="#181818" points="848.26,522.81,845.1865,513.453,844.9049,519.1028,839.255,518.8212,848.26,522.81" style="stroke:#181818;stroke-width:1;"/><text fill="#000000" font-family="sans-serif" font-size="13" lengthAdjust="spacing" textLength="83.7331" x="581.5" y="396.737">&#1051;&#1086;&#1075;&#1080; &#1076;&#1086;&#1089;&#1090;&#1091;&#1087;&#1072;</text></g><!--link K8sWeb to Rabbit--><g class="link" data-entity-1="K8sWeb" data-entity-2="Rabbit" data-source-line="42" data-uid="lnk28" id="link_K8sWeb_Rabbit"><path d="M1038.19,728.87 C1014.82,736.04 990,748.36 976,769.51 C966.69,783.58 966.1378,796.5778 969.1278,812.1378" fill="none" id="K8sWeb-to-Rabbit" style="stroke:#181818;stroke-width:1;"/><polygon fill="#181818" points="970.26,818.03,972.4898,808.4369,969.3165,813.1198,964.6335,809.9465,970.26,818.03" style="stroke:#181818;stroke-width:1;"/><text fill="#000000" font-family="sans-serif" font-size="13" lengthAdjust="spacing" textLength="190.3072" x="977" y="784.407">&#1055;&#1091;&#1073;&#1083;&#1080;&#1082;&#1072;&#1094;&#1080;&#1103;/&#1095;&#1090;&#1077;&#1085;&#1080;&#1077; &#1086;&#1095;&#1077;&#1088;&#1077;&#1076;&#1077;&#1081;</text></g><!--link K8sWeb to PG--><g class="link" data-entity-1="K8sWeb" data-entity-2="PG" data-source-line="43" data-uid="lnk29" id="link_K8sWeb_PG"><path d="M1151.73,700.73 C1189.43,686.65 1236.06,662.14 1259,622.45 C1269.36,604.51 1261.3175,590.2473 1244.7475,575.8373" fill="none" id="K8sWeb-to-PG" style="stroke:#181818;stroke-width:1;"/><polygon fill="#181818" points="1240.22,571.9,1244.3863,580.8242,1243.9929,575.1811,1249.636,574.7876,1240.22,571.9" style="stroke:#181818;stroke-width:1;"/><text fill="#000000" font-family="sans-serif" font-size="13" lengthAdjust="spacing" textLength="100.6721" x="1263.76" y="618.347">CRUD &#1086;&#1087;&#1077;&#1088;&#1072;&#1094;&#1080;&#1080;</text></g><!--link PG to K8sWeb--><g class="link" data-entity-1="PG" data-entity-2="K8sWeb" data-source-line="50" data-uid="lnk35" id="link_PG_K8sWeb"><path d="M1135.83,562.93 C1117.17,572.14 1098.71,585.23 1088,603.45 C1070.68,632.9 1078.0935,668.691 1085.9335,692.501" fill="none" id="PG-to-K8sWeb" style="stroke:#181818;stroke-width:1;"/><polygon fill="#181818" points="1087.81,698.2,1088.7945,688.4005,1086.2462,693.4508,1081.1959,690.9025,1087.81,698.2" style="stroke:#181818;stroke-width:1;"/><text fill="#000000" font-family="sans-serif" font-size="13" lengthAdjust="spacing" textLength="161.8372" x="1089" y="618.347">&#1056;&#1077;&#1087;&#1083;&#1080;&#1082;&#1072; &#1095;&#1090;&#1077;&#1085;&#1080;&#1077; (optional)</text></g><!--link K8sWeb to Redis--><g class="link" data-entity-1="K8sWeb" data-entity-2="Redis" data-source-line="44" data-uid="lnk30" id="link_K8sWeb_Redis"><path d="M1151.54,713.7 C1261.13,706.04 1496.01,682.8 1545,622.45 C1557,607.66 1552.191,592.8152 1540.941,576.7452" fill="none" id="K8sWeb-to-Redis" style="stroke:#181818;stroke-width:1;"/><polygon fill="#181818" points="1537.5,571.83,1539.3846,581.4969,1540.3675,575.926,1545.9383,576.9089,1537.5,571.83" style="stroke:#181818;stroke-width:1;"/><text fill="#000000" font-family="sans-serif" font-size="13" lengthAdjust="spacing" textLength="88.3871" x="1551.89" y="618.347">&#1050;&#1077;&#1096;&#1080;&#1088;&#1086;&#1074;&#1072;&#1085;&#1080;&#1077;</text></g><!--link Redis to K8sWeb--><g class="link" data-entity-1="Redis" data-entity-2="K8sWeb" data-source-line="51" data-uid="lnk36" id="link_Redis_K8sWeb"><path d="M1467.12,571.8 C1440.43,587.95 1405.54,607.82 1373,622.45 C1298.72,655.84 1214.6475,682.6816 1157.5975,699.4116" fill="none" id="Redis-to-K8sWeb" style="stroke:#181818;stroke-width:1;"/><polygon fill="#181818" points="1151.84,701.1,1161.6019,702.4057,1156.638,699.693,1159.3507,694.729,1151.84,701.1" style="stroke:#181818;stroke-width:1;"/><text fill="#000000" font-family="sans-serif" font-size="13" lengthAdjust="spacing" textLength="102.0891" x="1409.43" y="618.347">&#1041;&#1099;&#1089;&#1090;&#1088;&#1099;&#1081; &#1076;&#1086;&#1089;&#1090;&#1091;&#1087;</text></g><!--link K8sWeb to CH--><g class="link" data-entity-1="K8sWeb" data-entity-2="CH" data-source-line="45" data-uid="lnk31" id="link_K8sWeb_CH"><path d="M1132.09,737.92 C1145.85,746.24 1160.81,756.99 1172,769.51 C1184.59,783.6 1191.9009,796.9605 1198.4509,812.5105" fill="none" id="K8sWeb-to-CH" style="stroke:#181818;stroke-width:1;"/><polygon fill="#181818" points="1200.78,818.04,1200.9726,808.193,1198.8391,813.4321,1193.6,811.2985,1200.78,818.04" style="stroke:#181818;stroke-width:1;"/><text fill="#000000" font-family="sans-serif" font-size="13" lengthAdjust="spacing" textLength="214.7602" x="1185.62" y="784.407">&#1054;&#1090;&#1087;&#1088;&#1072;&#1074;&#1082;&#1072; &#1089;&#1086;&#1073;&#1099;&#1090;&#1080;&#1081; &#1076;&#1083;&#1103; &#1072;&#1085;&#1072;&#1083;&#1080;&#1090;&#1080;&#1082;&#1080;</text></g><!--link K8sWeb to KC--><g class="link" data-entity-1="K8sWeb" data-entity-2="KC" data-source-line="46" data-uid="lnk32" id="link_K8sWeb_KC"><path d="M1038.38,717.98 C993.79,717.98 937.91,717.98 893.17,717.98" fill="none" id="K8sWeb-to-KC" style="stroke:#181818;stroke-width:1;"/><polygon fill="#181818" points="887.17,717.98,896.17,721.98,892.17,717.98,896.17,713.98,887.17,717.98" style="stroke:#181818;stroke-width:1;"/><text fill="#000000" font-family="sans-serif" font-size="13" lengthAdjust="spacing" textLength="115.9341" x="905.23" y="710.877">&#1055;&#1088;&#1086;&#1074;&#1077;&#1088;&#1082;&#1072; &#1090;&#1086;&#1082;&#1077;&#1085;&#1086;&#1074;</text></g><!--link KC to K8sWeb--><g class="link" data-entity-1="KC" data-entity-2="K8sWeb" data-source-line="49" data-uid="lnk34" id="link_KC_K8sWeb"><path d="M887.17,717.98 C931.91,717.98 987.79,717.98 1032.38,717.98" fill="none" id="KC-to-K8sWeb" style="stroke:#181818;stroke-width:1;"/><polygon fill="#181818" points="1038.38,717.98,1029.38,713.98,1033.38,717.98,1029.38,721.98,1038.38,717.98" style="stroke:#181818;stroke-width:1;"/><text fill="#000000" font-family="sans-serif" font-size="13" lengthAdjust="spacing" textLength="94.2371" x="915.73" y="710.877">&#1058;&#1086;&#1082;&#1077;&#1085;&#1099;/&#1089;&#1077;&#1089;&#1089;&#1080;&#1080;</text></g><!--link K8sWeb to Push--><g class="link" data-entity-1="K8sWeb" data-entity-2="Push" data-source-line="47" data-uid="lnk33" id="link_K8sWeb_Push"><path d="M1076.31,698.3 C1053.94,677.35 1014.31,644.46 973,630.45 C950.26,622.73 780.95,624.26 757,622.45 C704.36,618.47 556.14,634.84 521,595.45 C465.79,533.56 499.22,488.87 521,408.84 C526.53,388.51 534.9104,373.0376 545.6404,357.2976" fill="none" id="K8sWeb-to-Push" style="stroke:#181818;stroke-width:1;"/><polygon fill="#181818" points="549.02,352.34,540.6455,357.5234,546.2036,356.4714,547.2556,362.0295,549.02,352.34" style="stroke:#181818;stroke-width:1;"/><text fill="#000000" font-family="sans-serif" font-size="13" lengthAdjust="spacing" textLength="234.5072" x="522" y="547.777">&#1055;&#1077;&#1088;&#1077;&#1076;&#1072;&#1095;&#1072; &#1089;&#1086;&#1073;&#1099;&#1090;&#1080;&#1081; &#1076;&#1083;&#1103; &#1091;&#1074;&#1077;&#1076;&#1086;&#1084;&#1083;&#1077;&#1085;&#1080;&#1081;</text></g><!--link Logging to KC--><g class="link" data-entity-1="Logging" data-entity-2="KC" data-source-line="53" data-uid="lnk37" id="link_Logging_KC"><path d="M837.92,562.39 C825.37,572.88 811.76,587.1 805,603.45 C791.8,635.34 804.6503,669.942 816.4603,692.952" fill="none" id="Logging-to-KC" style="stroke:#181818;stroke-width:1;"/><polygon fill="#181818" points="819.2,698.29,818.649,688.4566,816.9169,693.8417,811.5318,692.1095,819.2,698.29" style="stroke:#181818;stroke-width:1;"/><text fill="#000000" font-family="sans-serif" font-size="13" lengthAdjust="spacing" textLength="132.0931" x="806" y="618.347">&#1057;&#1073;&#1086;&#1088; &#1083;&#1086;&#1075;&#1086;&#1074; &#1080; &#1084;&#1077;&#1090;&#1088;&#1080;&#1082;</text></g><!--link Logging to K8sWeb--><g class="link" data-entity-1="Logging" data-entity-2="K8sWeb" data-source-line="54" data-uid="lnk38" id="link_Logging_K8sWeb"><path d="M890.05,562.29 C934.29,595.68 1020.9707,661.1058 1065.1907,694.4758" fill="none" id="Logging-to-K8sWeb" style="stroke:#181818;stroke-width:1;"/><polygon fill="#181818" points="1069.98,698.09,1065.2055,689.4758,1065.9889,695.0782,1060.3866,695.8616,1069.98,698.09" style="stroke:#181818;stroke-width:1;"/><text fill="#000000" font-family="sans-serif" font-size="13" lengthAdjust="spacing" textLength="71.188" x="967.23" y="618.347">&#1057;&#1073;&#1086;&#1088; &#1083;&#1086;&#1075;&#1086;&#1074;</text></g><!--SRC=[VLNBRjj65DtpAwPUsGkPAT02HL0KK9b2ScCxZ6JNBP3Da1nJh6YEG0wj18K1sGQQ02uGT5MWBUAaFr3PYLhRYULV6FvHpypeGSfnDw9u7-S-phsNdmHiDqeOgU-qtUsDTT8HefVTj-sKzbV3I7HoByzOwlD4i4Ii-dpFflqifbwcdhK8YgosozDQBwQ9oFTYU__JprRlsUlrhM_QM_O4rSgwKTAZATqZAVC5JSAOaPyiGjeT6l1-b8HabyOPWwJ5yoHmU9gmb7nk7LZK5pmbI_9KZkNxuXVvBvxdSbWSoP5wVv8iopyXEfCNMdsD_wCdYJmj1ag2jtzWU8t_evKbGZEoZMeigqVzBWqPSF-6yXrChef3yfthBEcqPcetz-B89-tSIvWmEb8gOUa7cWJiAN4UR2AHuX1PgSmkYkToL1pAAuIz97YCvRLE6Byc2pWiGjNTDTAWWlNfCs1DW4j2umX1OsVHTIq9KvO15IobF8vP2eJDnjhczyPfebzqU-JzY1VIHeDHx3neLMuW7dtzxLsrnpmFo2ONqMxaKn7nXBHPkX_vZ2XoJelZuaMjE0Pf8pHwB3-05Sr8yT90ktdM0VQ1LMby6ksZxeNEpzGFlyWGCc34vJmcoplCiz6PbQbT9S-94gP1fWF26J9jUF2_iFLSTEnr7duSzo5xviUSTal0pcqhk8TglcsomKGQ-Q0mn2OPXucob4h9iqKzBn8RZz753PeWlu3eaRuWybpLOBfdh1PzNPu9SDv-l4wQzJd0fE6DHNC7GzvjScpwegtJl9KM2w9iqKmBDOcWKQqOgTM-KbDExXFvcnpA6-pZ60joGkPRelPZRgmd6-OjTJV2bkieYL5_MQlfAL5WvWuSgmqpQqs0VTU8OVlwpCkutsKYirGwAX9c-Gwa2trUpf3hS7OtBYtBfAPSfviqtJWbC-C4nERMbciBlrVLEj3O59DK4K_70ddyWP1l5QllT8UEKCYD75hM15TP6v9rqj2UgI50yuR5psgBxEAvEIwcXh4-FWFTYX6oBy6u3K0uhUq7i48CPQKnG4CvcE9InVeT5YyGOM1EhWbGjdIQokmLej_ebfshf42mxk69flXIbVM-U4cq_r1bFgE-XAIxf8-s2gKIqqX7UBtIfK5SgMGs3TDIXoZxhjWV7mrqsAaIAF-QnYjER43XXkDNjGUTgrg-XjNDb0TIOM2PzzGLfF6APLfPzVmLsIcM1yM9oN16kcLDfsBUaZTWUrmCYFwKlLLj86fKFY2t8_s9kwewpSBSTlmF]--></g></svg>